<?xml version="1.0" encoding="utf-8" ?><svg xmlns="http://www.w3.org/2000/svg" xmlns:xlink="http://www.w3.org/1999/xlink" width="1380" height="720" viewBox="0 0 1380 720"><path fill="#0272E5" d="M236.86 223.818C240.996 223.072 263.301 223.082 267.414 224.349C283.317 229.247 304.936 229.788 315.196 243.91C315.52 247.411 316.177 249.503 314.389 252.25C309.414 254.503 282.844 242.512 273.68 242.026C266.972 247.457 269.663 264.065 266.631 270.346C257.988 288.249 244.226 305.711 225.937 314.423C217.801 318.299 206.855 316.153 207.671 328.364C209.156 350.577 224.939 368.819 240.487 383.372C242.022 384.809 243.587 386.441 243.597 388.624C242.657 391.766 240.609 393.08 237.977 394.723C232.437 398.166 231.366 396.169 227.304 392.497C212.076 378.733 203.196 365.285 194.467 346.969C189.461 358.675 187.495 367.191 177.024 376.207C172.819 379.828 164.355 384.884 165.463 390.829C169.194 391.578 177.692 390.229 182.128 390.35C200.745 390.725 205.304 416.366 212.278 430.134C230.758 466.098 254.367 483.127 281.317 442.049C291.134 427.086 295.247 408.481 306.819 395.229C312.788 388.393 328.329 390.663 337.069 390.853C331.441 380.464 321.267 375.072 314.478 364.898C311.292 360.125 309.828 352.27 307.051 348.76C305.852 349.283 301.999 357.339 300.931 359.143C286.841 383.002 265.783 402.123 242.467 416.811C237.135 420.17 222.063 430.402 216.297 427.037C213.844 424.291 213.183 419.736 212.348 416.088C216.863 413.08 221.585 411.489 226.971 408.051C255.056 390.123 292.647 361.547 293.605 325.112C290.61 316.949 282.13 317.934 274.327 313.152C262.176 305.705 244.961 299.95 263.392 287.235C263.832 286.932 283.249 300.754 289.157 303.102C314.951 313.358 347.712 304.686 364.911 283.268C365.886 277.211 365.875 271.687 365.776 265.581C358.077 264.442 329.193 258.358 322.857 255.141C320.108 252.297 320.165 242.913 319.917 238.653C331.065 240.044 342.544 245.415 353.56 248.061C362.129 250.12 371.167 249.981 379.5 251.893C381.826 260.648 385.467 280.076 381.301 287.955C376.178 297.07 363.086 307.878 353.928 312.84C343.145 318.682 334.124 315.731 328.066 329.439C318.57 350.924 335.362 370.691 354.04 378.89C362.515 365.477 365.444 328.037 365.925 311.765C366.853 310.377 380.022 298.712 381.237 298.238C387.528 305.745 375.055 372.925 370.937 383.006C362.031 404.698 347.897 454.862 315.183 442.217C309.35 442.185 308.257 434.493 310.651 430.734C320.873 414.676 326.861 441.599 337.549 413.547C330.762 407.255 330.23 407.227 321.276 404.534C320.67 404.892 317.723 406.726 317.286 407.231C308.361 417.537 305.543 434.388 298.283 446.181C290.379 459.019 278.632 467.818 271.783 480.607C269.458 484.947 268.674 496.15 268.244 501.074C250.217 506.487 251.301 509.412 232.951 499.692C229.997 470.582 219.762 470.379 204.184 449.405C196.632 439.237 191.426 417.888 183.897 406.34C179.124 406.168 176.09 406.542 171.357 407.058C167.904 410.002 163.199 413.461 164.093 418.56C166.429 431.888 182.665 422.965 189.902 429.229C192.633 431.593 192.548 439.622 190.683 440.581C183.735 444.154 173.587 444.269 166.162 443.794C129.024 416.544 119.336 340.789 120.053 298.089C122.346 300.154 134.565 309.811 134.711 310.75C136.451 321.984 138.871 371.984 147.71 378.153C150.182 378.159 152.574 376.257 154.672 374.891C173.593 362.572 182.705 341.108 169.109 321.013C164.115 318.748 158.12 317.026 153.054 314.766C139.827 308.864 128.11 299.549 120.041 287.513C119.115 280.638 119.587 258.798 123.254 253.294C133.502 249.409 147.85 248.533 158.579 244.83C161.741 243.738 179.453 238.257 181.57 239.925C181.729 243.126 180.568 251.44 180.494 256.194C165.813 259.653 151.051 262.759 136.222 265.511C134.891 276.224 135.399 285.681 145.247 292.167C151.149 295.335 161.888 302.776 167.953 304.671C201.911 315.281 243.914 295.433 251.218 259.331C251.844 256.236 254.644 253.586 251.553 251.536C244.6 253.361 247.654 274.013 237.756 272.558C232.638 268.315 231.231 250.036 230.4 243.181C216.448 242.805 197.652 252.76 186.77 252.943C184.176 250.132 186.691 243.593 188.889 240.933C195.961 232.372 206.132 231.587 216.076 229.118C223.164 227.358 229.55 224.709 236.86 223.818Z"/><path fill="#0272E5" d="M1116.08 329.524C1130.8 328.414 1141.12 334.454 1148.04 347.39C1148.3 342.323 1148.19 336.366 1148.22 331.228C1156.81 331.325 1165.39 331.267 1173.98 331.053L1174.04 393.245C1174.09 405.433 1175.02 423.728 1173.03 435.142C1168.01 463.976 1126.26 468.782 1103.67 459.57C1094.59 455.868 1090.28 450.893 1083.95 443.714C1083.56 440.865 1083.55 438.241 1083.49 435.38C1091.23 434.215 1099.06 432.905 1106.86 433.048C1112.77 437.828 1113.83 441.715 1123.03 442.719C1129.13 443.385 1135.96 442.14 1140.67 438.046C1151.5 428.644 1146.85 421.646 1147.99 409.916C1141.82 418.15 1137.71 422.941 1127.03 424.799C1068.56 434.974 1063.1 338.164 1116.08 329.524ZM1121.51 353.203C1116.62 357.54 1112.39 360.014 1110.39 366.451C1105.39 382.585 1108.28 400.662 1126.85 404.392C1154.24 403.26 1151.94 354.267 1129.87 352.499L1121.51 353.203Z"/><path fill="#0272E5" d="M1037.86 299.222C1046.76 299.49 1055.66 299.324 1064.56 299.227L1064.53 426.253C1055.73 426.388 1046.92 426.385 1038.11 426.245C1037.66 422.563 1037.66 415.236 1037.54 411.265C1029.56 429.799 1013.38 429.809 996.098 425.368C982.605 420.156 979.683 413.229 974.271 400.569C968.617 387.344 968.986 368.595 974.291 355.321C984.47 329.851 1024.38 315.518 1037.11 347.601C1036.61 340.172 1037.23 334.501 1037.41 327.226L1037.86 299.222ZM1019.57 404.804C1024.23 404.102 1027.17 403.117 1031.07 400.392C1034.56 392.248 1037.58 384.995 1036.88 375.838C1036.04 364.961 1031.28 352.002 1018.29 352.495C1001.82 354.083 997.777 370.37 999.358 384.617C1000.79 397.5 1006.11 404.906 1019.57 404.804Z"/><path fill="#0272E5" d="M870.901 299.254C899.036 298.786 928.481 299.281 956.748 299.268C957.074 306.235 956.746 316.059 956.693 323.236L920.539 323.355C914.157 323.366 903.717 323.607 897.632 322.8C897.55 327.881 896.817 346.025 899.293 349.791C904.203 351.849 942.542 350.996 951.44 350.989C951.337 358.664 951.183 366.337 950.976 374.009C942.302 374.233 903.687 373.556 898.564 374.991L897.68 376.898C897.536 385.642 897.486 394.388 897.528 403.133L956.79 402.821C957.032 409.851 956.713 419.038 956.648 426.204C939.305 426.726 920.612 426.08 903.136 426.354C896.773 426.454 874.189 426.664 869.578 425.575C868.248 423.05 869.357 371.008 869.418 364.334C869.509 354.268 867.566 304.208 870.901 299.254Z"/><path fill="#0272E5" d="M492.527 297.275C501.798 297.122 507.915 296.75 516.913 299.288C539.513 305.663 554.104 321.718 556.145 345.323C547.333 345.708 536.731 345.459 527.785 345.47C524.77 323.781 503.892 317.946 486.525 327.005C469.816 337.602 468.983 361.376 472.606 378.956C476.787 399.25 498.171 409.118 516.311 399.876C521.454 397.256 526.256 389.221 527.604 383.397L528.068 381.962C531.533 380.501 551.301 381.307 556.168 381.411C555.423 403.759 538.637 422.121 516.974 426.538C480.595 433.956 448.286 415.176 442.193 377.189C436.247 340.121 453.4 304.532 492.527 297.275Z"/><path fill="#0272E5" d="M1231.16 329.49C1247.33 328.974 1259.72 332.274 1271.38 344.361C1282.26 355.651 1282.36 370.748 1281.71 385.476C1274.98 385.795 1266.63 385.216 1259.53 385.394C1245.57 385.743 1230.36 388.258 1216.79 384.869C1219.97 401.961 1223.74 408.046 1242.65 406.392C1255.89 405.234 1252.09 392.419 1267.02 396.739C1268.91 397.287 1275.17 397.357 1277.49 397.388C1282.9 399.479 1281.37 404.879 1278.83 408.699C1256.93 441.661 1195.15 432.865 1189.89 389.871C1186.06 358.554 1199.19 335.319 1231.16 329.49ZM1241.02 369.079C1244.2 369.118 1252.2 369.486 1254.8 368.612C1257.68 364.294 1248.25 353.512 1244.81 351.027C1239.6 350.857 1235.79 350.795 1230.6 351.117C1226.05 353.122 1215.7 362.73 1217.87 368.182C1220.35 370.023 1236.89 369.144 1241.02 369.079Z"/><path fill="#0272E5" d="M805.232 329.488C820.111 328.977 828.508 329.63 840.798 339.549C851.232 347.97 853.347 354.457 854.653 367.025C846.015 367.086 837.403 367.213 828.77 366.898C827.845 364.614 827.018 361.831 826.247 359.449C813.057 347.517 802.096 348.365 793.978 366.078C789.536 375.769 791.867 401.373 804.702 404.366C818.581 407.602 824.161 403.612 827.896 390.977C831.291 390.663 835.611 390.718 839.084 390.665C841.741 390.599 854.035 389.31 854.19 392.7C854.908 408.444 842.039 422.502 827.146 426.203C800.108 432.922 772.964 422.403 765.939 393.581C762.238 378.82 764.592 363.192 772.479 350.176C780.213 337.657 791.622 332.658 805.232 329.488Z"/><path fill="#0272E5" d="M631.46 331.125L639.946 330.464C647.286 350.343 654.478 374.623 659.815 395.362C663.559 387.247 679.693 339.368 680.917 331.208C690.936 331.382 701.791 330.68 711.578 331.29C705.817 343.69 700.965 356.492 697.062 369.596C692.113 382.073 687.513 394.734 682.68 407.261C680.292 413.454 678.724 419.937 676.451 426.238C666.14 426.387 655.828 426.379 645.518 426.213C643.342 417.529 639.071 410.454 636.851 402.623C630.182 379.101 617.485 354.689 611.442 331.344C618.115 331.363 624.788 331.291 631.46 331.125Z"/><path fill="#0272E5" d="M572.734 331.292C582.066 331.214 591.399 331.25 600.73 331.4L600.873 393.208C600.895 399.498 601.405 420.671 600.444 426.111C592.193 426.562 581.28 426.293 572.831 426.317C570.457 408.046 572.057 398.296 572.042 380.541C572.027 363.416 571.649 348.717 572.734 331.292Z"/><path fill="#0272E5" d="M721.015 331.381C730.461 331.227 739.909 331.203 749.355 331.307C748.89 352.297 748.698 373.292 748.778 394.288C748.877 405.11 749.412 414.922 749.293 425.934C744.373 426.801 726.886 426.434 721.24 426.411L721.015 331.381Z"/><path fill="#0272E5" fill-opacity="0.98823529" d="M313.187 448.07C318.913 448.183 325.574 449.463 331.311 450.402C323.104 464.681 300.732 481.165 286.801 489.971C283.532 491.697 278.137 497.052 275.056 494.458C271.865 479.09 286.887 469.749 297.119 462.288C302.12 458.642 307.74 450.71 313.187 448.07Z"/><path fill="#0272E5" d="M180.438 448.219L188.41 448.35C193.633 453.721 199.075 458.875 204.724 463.796C212.385 470.338 220.216 474.469 225.563 483.128C225.833 487.061 225.618 492.472 225.559 496.539L220.027 493.459C211.986 488.93 170.195 458.641 171.1 450.757C173.748 448.944 175.949 449.805 179.874 448.421L180.438 448.219Z"/><path fill="#0272E5" d="M730.712 293.194C741.224 292.81 754.182 295.039 751.125 310.465C750.228 314.993 744.724 318.547 740.662 320.43C739.281 320.569 737.351 320.774 735.969 320.755C719.025 320.516 714.141 300.487 730.712 293.194Z"/><path fill="#0272E5" d="M581.699 293.216C587.098 293.064 589.316 293.23 594.539 294.243C605.589 303.29 604.19 315.024 590.674 320.488C567.691 322.071 565.716 299.322 581.699 293.216Z"/><path fill="#0272E5" fill-opacity="0.98823529" d="M378.907 398.985C384.525 399.397 387.51 403.09 390.834 407.059C391.169 411.865 391.057 414.525 390.76 419.338C390.604 419.52 390.447 419.702 390.289 419.883C386.604 424.082 383.68 425.922 378.106 426.304C368.893 423.546 366.673 422.105 364.349 412.76C367.233 404.023 369.452 400.206 378.907 398.985Z"/><path fill="#0272E5" fill-opacity="0.98823529" d="M247.629 434.15C254.88 432.593 262.011 437.243 263.507 444.504C265.004 451.765 260.291 458.853 253.015 460.287C247.355 461.403 241.619 458.758 238.794 453.732C236.717 450.036 236.52 445.574 238.263 441.71C240.006 437.846 243.483 435.04 247.629 434.15Z"/><path fill="#0272E5" d="M246.702 192.888C255.14 192.682 256.738 192.662 263.009 198.429C263.392 201.426 264.214 204.211 264.993 207.123C263.605 210.208 262.206 212.72 260.578 215.66L255.888 217.889C241.196 220.876 237.401 213.614 237.957 200.6C240.37 197.511 243.336 194.897 246.702 192.888Z"/><path fill="#0272E5" fill-opacity="0.98823529" d="M120.228 399.373C126.492 398.715 131.687 402.465 135.262 407.229C135.98 413.003 136.02 415.244 135.382 420.837C131.636 423.549 130.689 424.099 126.47 425.992C113.433 428.459 109.946 418.909 110.542 408.1C113.825 403.294 115.074 402.042 120.228 399.373Z"/><path fill="#0272E5" fill-opacity="0.98823529" d="M310.612 275.503C317.47 275.033 322.552 276.508 325.492 283.455C327.053 287.079 327.033 291.189 325.437 294.798C323.469 299.238 320.556 300.769 316.285 302.405C307.984 305.782 289.825 289.353 310.612 275.503Z"/><path fill="#0272E5" d="M184.824 275.406C198.611 273.997 200.359 285.41 200.121 295.864C197.332 298.852 193.228 300.976 189.594 302.755C177.896 304.316 171.256 291.02 177.392 281.889C179.668 278.5 181.554 277.552 184.824 275.406Z"/><path fill="#0272E5" fill-opacity="0.98823529" d="M267.25 404.655C270.053 405.303 283.378 413.14 286.923 415.093C288.614 418.946 286.556 424.478 283.603 427.323C282.411 428.471 281.53 427.975 279.991 427.752C275.439 425.451 257.423 419.115 257.215 413.545C258.831 411.22 264.454 407.136 267.25 404.655Z"/></svg>