<?xml version="1.0" encoding="utf-8" ?><svg xmlns="http://www.w3.org/2000/svg" xmlns:xlink="http://www.w3.org/1999/xlink" width="320" height="320" viewBox="0 0 320 320"><defs><linearGradient id="gradient_0" gradientUnits="userSpaceOnUse" x1="281.83524" y1="280.33173" x2="37.79324" y2="38.543251"><stop offset="0" stop-color="#AE3C33"/><stop offset="1" stop-color="#E74E44"/></linearGradient></defs><path fill="url(#gradient_0)" d="M36.8461 50.545C39.7336 50.0184 46.3471 50.0236 49.4499 50.0088L69.0894 50.0006L137.312 50.0143L233.203 50.0087L262.943 50.0027C267.399 50.003 275.352 49.8129 279.571 50.2021C282.766 49.9834 286.739 49.7642 289.843 50.21C296.454 51.1599 303.688 57.6375 303.941 64.5885C304.096 68.8436 303.954 73.4375 303.956 77.7539L303.992 103.32L303.988 181.237L304.014 232.355L304.024 247.596C304.032 254.385 304.664 257.873 299.604 263.496C296.562 266.85 292.293 268.831 287.768 268.989C284.634 269.125 267.688 269.328 265.576 268.806L208.79 268.763L207.626 268.793C205.158 269.199 192.899 269.004 189.949 269L152.225 268.985L71.1797 268.973C59.7805 268.971 48.3828 268.977 36.9839 269.052C33.6984 269.073 30.2485 269.152 27.1297 267.996C22.0918 266.127 18.3259 262.178 16.305 257.246C16.1243 256.805 15.9103 256.427 15.9109 255.918C15.9393 252.703 16.0571 249.425 16.071 246.212L16.0527 224.545L16.0716 103.172L16.0749 75.8143C16.0631 72.4825 16.1151 69.066 16.0153 65.7394C15.7225 55.9807 27.6517 48.0396 36.8461 50.545Z"/><path fill="#BBBABA" d="M267.518 103.934L267.534 205.181L267.535 247.75C267.536 250.27 267.719 267.87 267.32 268.638C266.62 268.779 266.295 268.781 265.576 268.806L208.79 268.763C208.446 268.046 199.221 259.271 197.921 257.959L160.447 220.282C153.811 213.58 145.849 205.057 138.976 198.728C137.226 199.792 135.491 201.659 133.852 202.966C108.444 223.217 83.2191 243.702 57.8445 263.995C55.9496 265.511 54.1596 267.351 52.2331 268.796L52.1666 268.043C51.8914 266.634 52.0526 256.338 52.059 254.208L52.0665 223.265L52.0543 104.134C55.4023 106.979 60.4772 110.445 64.1529 113.127L86.4939 129.402L159.468 182.462C164.904 178.867 170.93 174.238 176.242 170.363L207.349 147.658L248.891 117.446C254.848 113.109 261.728 108.375 267.518 103.934Z"/><path fill="#CFCECE" d="M52.1666 268.043C52.5088 262.602 52.2766 254.592 52.2775 248.997L52.2812 213.682L52.2129 111.368C54.1915 112.875 57.2914 116.209 59.1823 118.129C63.2814 122.344 67.4103 126.531 71.5688 130.688L122.842 182.411L134.054 193.736C135.029 194.723 138.084 197.991 138.977 198.584L138.976 198.728C137.226 199.792 135.491 201.659 133.852 202.966C108.444 223.217 83.2191 243.702 57.8445 263.995C55.9496 265.511 54.1596 267.351 52.2331 268.796L52.1666 268.043Z"/><path fill="#E3E2E2" d="M36.8461 50.545C39.7336 50.0184 46.3471 50.0236 49.4499 50.0088L69.0894 50.0006L137.312 50.0143L233.203 50.0087L262.943 50.0027C267.399 50.003 275.352 49.8129 279.571 50.2021C278.261 51.5269 272.902 54.8256 270.978 56.2505C260.471 64.0393 249.924 71.772 239.335 79.4482L185.992 118.455L169.549 130.451C166.483 132.693 162.672 135.637 159.534 137.664L80.7497 80.4536L56.0738 62.5177C52.094 59.6271 47.9436 56.4463 43.8399 53.7772C42.0299 52.5999 38.8933 51.5325 36.8461 50.545Z"/><path fill="#E3E2E2" d="M138.976 198.728C145.849 205.057 153.811 213.58 160.447 220.282L197.921 257.959C199.221 259.271 208.446 268.046 208.79 268.763L207.626 268.793C203.315 268.552 195.902 268.81 191.345 268.812L157.406 268.812L52.2331 268.796C54.1596 267.351 55.9496 265.511 57.8445 263.995C83.2191 243.702 108.444 223.217 133.852 202.966C135.491 201.659 137.226 199.792 138.976 198.728Z"/></svg>