<?xml version="1.0" encoding="utf-8" ?><svg xmlns="http://www.w3.org/2000/svg" xmlns:xlink="http://www.w3.org/1999/xlink" width="225" height="225" viewBox="0 0 225 225"><path fill="#ED4036" d="M64.454 90.6542C77.5199 63.5569 111.134 52.3986 138.031 65.5742C142.957 67.9874 146.857 70.8862 150.972 74.4985C145.993 79.2136 141.309 84.2453 136.441 89.0741C136.081 89.4318 135.698 89.7466 135.273 90.0229C134.37 89.8195 130.452 86.7288 128.825 85.8416C118.834 80.502 106.741 80.9621 97.1843 87.0455C90.0313 91.5757 86.3501 96.9291 83.1973 104.556C81.7942 103.906 79.9806 102.224 78.7261 101.323C75.2302 98.8111 68.0481 92.2777 64.454 90.6542Z"/><path fill="#31A952" d="M64.6452 140.317C65.8755 138.898 69.411 136.282 70.9846 135.044C74.9672 131.909 79.0973 128.891 82.9828 125.626C86.7511 134.628 92.3997 142.086 101.714 145.895C110.083 149.263 119.445 149.175 127.749 145.65C129.582 144.87 131.144 144.008 132.847 142.991C136.095 145.754 139.404 148.444 142.771 151.059C144.766 152.613 148.785 155.573 150.459 157.264C149.903 157.545 147.872 159.238 147.25 159.731C133.986 170.231 113.455 173.074 97.327 167.869C83.2277 163.351 71.4822 153.45 64.6452 140.317Z"/><path fill="#4286F6" d="M113.848 105.093C122.952 105.255 132.058 105.298 141.163 105.221C149.356 105.216 157.731 105.329 165.908 105.212C168.652 120.586 165.958 136.987 156.901 149.894C155.464 151.943 152.386 155.962 150.459 157.264C148.785 155.573 144.766 152.613 142.771 151.059C139.404 148.444 136.095 145.754 132.847 142.991C139.922 137.336 140.909 134.398 143.689 126.486C133.785 126.411 123.881 126.429 113.977 126.54C113.999 119.391 113.956 112.242 113.848 105.093Z"/><path fill="#FCBC04" d="M64.454 90.6542C68.0481 92.2777 75.2302 98.8111 78.7261 101.323C79.9806 102.224 81.7942 103.906 83.1973 104.556C81.1984 111.574 80.9529 118.569 82.9828 125.626C79.0973 128.891 74.9672 131.909 70.9846 135.044C69.411 136.282 65.8755 138.898 64.6452 140.317C57.0106 123.519 56.1953 107.488 64.454 90.6542Z"/></svg>